<svg width="15" height="15" viewBox="0 0 15 15" fill="none" xmlns="http://www.w3.org/2000/svg">
<g clip-path="url(#clip0_4039_4618)">
<path d="M13.9219 7.75C13.9219 8.59766 13.776 9.39974 13.4844 10.1562C13.1927 10.9128 12.7894 11.5872 12.2744 12.1797C11.7594 12.7721 11.1556 13.2689 10.4629 13.6699C9.76107 14.0618 9.00911 14.3216 8.20703 14.4492V9.70508H9.7793L10.0801 7.75H8.20703V6.47852C8.20703 6.20508 8.28451 5.95898 8.43945 5.74023C8.5944 5.52148 8.88151 5.41211 9.30078 5.41211H10.1621V3.74414C10.1621 3.74414 10.0026 3.72363 9.68359 3.68262C9.36458 3.6416 9.01823 3.62109 8.64453 3.62109C7.86979 3.62109 7.24772 3.84668 6.77832 4.29785C6.30892 4.74902 6.07422 5.403 6.07422 6.25977V7.75H4.35156V9.70508H6.07422V14.4492C5.27214 14.3216 4.52018 14.0618 3.81836 13.6699C3.12565 13.2689 2.52181 12.7721 2.00684 12.1797C1.49186 11.5872 1.08854 10.9128 0.796875 10.1562C0.505208 9.39974 0.359375 8.59766 0.359375 7.75C0.359375 6.8112 0.537109 5.93164 0.892578 5.11133C1.24805 4.29102 1.7334 3.57324 2.34863 2.95801C2.96387 2.34277 3.68164 1.85742 4.50195 1.50195C5.32227 1.14648 6.20182 0.96875 7.14062 0.96875C8.07943 0.96875 8.95898 1.14648 9.7793 1.50195C10.5996 1.85742 11.3174 2.34277 11.9326 2.95801C12.5479 3.57324 13.0332 4.29102 13.3887 5.11133C13.7441 5.93164 13.9219 6.8112 13.9219 7.75Z" fill="#1F1E17"/>
</g>
<defs>
<clipPath id="clip0_4039_4618">
<rect width="14" height="14" fill="white" transform="matrix(1 0 0 -1 0.359375 14.75)"/>
</clipPath>
</defs>
</svg>
