<svg width="30" height="30" viewBox="0 0 30 30" fill="none" xmlns="http://www.w3.org/2000/svg">
<path d="M15.7445 23.3203C15.6469 23.3203 15.559 23.291 15.4809 23.2324C15.4027 23.1738 15.3441 23.1055 15.3051 23.0273C14.9926 22.1484 14.5629 21.3428 14.016 20.6104C13.4691 19.8779 12.893 19.1504 12.2875 18.4277C11.7406 17.7637 11.1986 17.0801 10.6615 16.377C10.1244 15.6738 9.67031 14.9121 9.29921 14.0918C9.26015 13.9746 9.26504 13.8525 9.31386 13.7256C9.36269 13.5986 9.4457 13.5156 9.56289 13.4766C9.68007 13.418 9.79726 13.4131 9.91445 13.4619C10.0316 13.5107 10.1195 13.5938 10.1781 13.7109C10.5102 14.4727 10.9252 15.1807 11.4232 15.835C11.9213 16.4893 12.4437 17.1484 12.9906 17.8125C13.6156 18.5547 14.2162 19.3164 14.7924 20.0977C15.3686 20.8789 15.8324 21.748 16.184 22.7051C16.223 22.8223 16.2182 22.9395 16.1693 23.0566C16.1205 23.1738 16.0375 23.252 15.9203 23.291C15.8812 23.3105 15.8471 23.3203 15.8178 23.3203C15.7885 23.3203 15.7641 23.3203 15.7445 23.3203ZM15.7445 23.3203C15.725 23.3203 15.7006 23.3203 15.6713 23.3203C15.642 23.3203 15.6176 23.3105 15.598 23.291C15.4613 23.252 15.3686 23.1738 15.3197 23.0566C15.2709 22.9395 15.266 22.8223 15.3051 22.7051C15.6566 21.748 16.1205 20.8789 16.6967 20.0977C17.2728 19.3164 17.8734 18.5547 18.4984 17.8125C19.0453 17.1484 19.5678 16.4893 20.0658 15.835C20.5639 15.1807 20.9789 14.4727 21.3109 13.7109C21.3695 13.5938 21.4574 13.5107 21.5746 13.4619C21.6918 13.4131 21.8187 13.418 21.9555 13.4766C22.0727 13.5156 22.1508 13.5986 22.1898 13.7256C22.2289 13.8525 22.2289 13.9746 22.1898 14.0918C21.8187 14.9121 21.3695 15.6738 20.8422 16.377C20.3148 17.0801 19.768 17.7637 19.2016 18.4277C18.5961 19.1504 18.0199 19.8779 17.473 20.6104C16.9262 21.3428 16.4965 22.1484 16.184 23.0273C16.1449 23.1055 16.0863 23.1738 16.0082 23.2324C15.9301 23.291 15.8422 23.3203 15.7445 23.3203ZM15.7445 15C14.7289 15 13.85 14.6289 13.1078 13.8867C12.3656 13.1445 11.9945 12.2656 11.9945 11.25C11.9945 10.2344 12.3656 9.35547 13.1078 8.61328C13.85 7.87109 14.7289 7.5 15.7445 7.5C16.7602 7.5 17.6391 7.87109 18.3812 8.61328C19.1234 9.35547 19.4945 10.2344 19.4945 11.25C19.4945 12.2656 19.1234 13.1445 18.3812 13.8867C17.6391 14.6289 16.7602 15 15.7445 15ZM15.7445 8.4375C14.9828 8.4375 14.3236 8.71582 13.767 9.27246C13.2103 9.8291 12.932 10.4883 12.932 11.25C12.932 12.0117 13.2103 12.6709 13.767 13.2275C14.3236 13.7842 14.9828 14.0625 15.7445 14.0625C16.5062 14.0625 17.1654 13.7842 17.7221 13.2275C18.2787 12.6709 18.557 12.0117 18.557 11.25C18.557 10.4883 18.2787 9.8291 17.7221 9.27246C17.1654 8.71582 16.5062 8.4375 15.7445 8.4375ZM21.7504 14.3555C21.7113 14.3555 21.6771 14.3555 21.6478 14.3555C21.6186 14.3555 21.5941 14.3457 21.5746 14.3262C21.4574 14.2676 21.3744 14.1797 21.3256 14.0625C21.2768 13.9453 21.2719 13.8281 21.3109 13.7109C21.7016 12.8125 21.8676 11.8848 21.809 10.9277C21.7504 9.9707 21.4769 9.0625 20.9887 8.20312C20.4809 7.34375 19.8217 6.65039 19.0111 6.12305C18.2006 5.5957 17.3168 5.2832 16.3598 5.18555C15.4223 5.08789 14.5043 5.20996 13.6059 5.55176C12.7074 5.89355 11.9359 6.41602 11.2914 7.11914C10.4711 7.99805 9.95839 9.04297 9.75332 10.2539C9.54824 11.4648 9.68984 12.6172 10.1781 13.7109C10.2172 13.8281 10.2172 13.9453 10.1781 14.0625C10.1391 14.1797 10.0609 14.2676 9.94375 14.3262C9.80703 14.3848 9.68007 14.3896 9.56289 14.3408C9.4457 14.292 9.35781 14.209 9.29921 14.0918C8.75234 12.8223 8.59609 11.4893 8.83046 10.0928C9.06484 8.69629 9.65078 7.49023 10.5883 6.47461C11.3305 5.67383 12.2191 5.07812 13.2543 4.6875C14.2894 4.29688 15.3539 4.15039 16.4477 4.24805C17.5609 4.36523 18.5863 4.72656 19.5238 5.33203C20.4613 5.9375 21.2133 6.73828 21.7797 7.73438C22.3656 8.73047 22.6928 9.78027 22.7611 10.8838C22.8295 11.9873 22.6391 13.0566 22.1898 14.0918C22.1508 14.1699 22.0922 14.2334 22.0141 14.2822C21.9359 14.3311 21.848 14.3555 21.7504 14.3555ZM15.7738 25.7812C14.973 25.7812 14.1039 25.7324 13.1664 25.6348C12.2289 25.5371 11.3207 25.332 10.4418 25.0195C10.0902 24.9023 9.54824 24.6387 8.81582 24.2285C8.08339 23.8184 7.84414 23.2227 8.09804 22.4414C8.15664 22.2266 8.27382 22.0215 8.44961 21.8262C8.62539 21.6309 8.85 21.4551 9.12343 21.2988C9.55312 21.0254 10.0023 20.8154 10.4711 20.6689C10.9398 20.5225 11.3793 20.4004 11.7894 20.3027C11.9066 20.2832 12.0238 20.3076 12.141 20.376C12.2582 20.4443 12.3266 20.5371 12.3461 20.6543C12.3852 20.791 12.3705 20.9131 12.3021 21.0205C12.2338 21.1279 12.1312 21.1914 11.9945 21.2109C11.5258 21.3281 11.0961 21.4502 10.7055 21.5771C10.3148 21.7041 9.95351 21.875 9.62148 22.0898C9.4457 22.1875 9.3041 22.29 9.19668 22.3975C9.08925 22.5049 9.01601 22.6172 8.97695 22.7344C8.91836 22.9688 9.03554 23.2031 9.32851 23.4375C9.62148 23.6719 10.1 23.9062 10.7641 24.1406C11.682 24.4727 12.6391 24.6729 13.6352 24.7412C14.6312 24.8096 15.5297 24.8438 16.3305 24.8438C17.4437 24.8242 18.4301 24.7314 19.2894 24.5654C20.1488 24.3994 20.9008 24.1504 21.5453 23.8184C21.7406 23.7207 21.975 23.5645 22.2484 23.3496C22.5219 23.1348 22.6 22.9004 22.4828 22.6465C22.268 22.2168 21.8578 21.9043 21.2523 21.709C20.6469 21.5137 20.1098 21.3672 19.641 21.2695L19.4945 21.2109C19.3773 21.1914 19.2797 21.1279 19.2016 21.0205C19.1234 20.9131 19.1039 20.791 19.143 20.6543C19.1625 20.5371 19.2309 20.4443 19.348 20.376C19.4652 20.3076 19.5824 20.2832 19.6996 20.3027L19.8461 20.332C20.4125 20.4687 21.0521 20.6641 21.765 20.918C22.4779 21.1719 22.9906 21.6016 23.3031 22.207C23.518 22.6562 23.5082 23.0957 23.2738 23.5254C23.0394 23.9551 22.6098 24.3262 21.9848 24.6387C21.2621 25.0098 20.4369 25.2881 19.5092 25.4736C18.5814 25.6592 17.5316 25.7617 16.3598 25.7812C16.2621 25.7812 16.1644 25.7812 16.0668 25.7812C15.9691 25.7812 15.8715 25.7812 15.7738 25.7812Z" fill="#878680"/>
</svg>
