<svg width="14" height="14" viewBox="0 0 14 14" fill="none" xmlns="http://www.w3.org/2000/svg">
<path d="M7.125 3.85547C7.5625 3.85547 7.97266 3.9375 8.35547 4.10156C8.73828 4.26562 9.07096 4.48893 9.35352 4.77148C9.63607 5.05404 9.85938 5.38672 10.0234 5.76953C10.1875 6.15234 10.2695 6.5625 10.2695 7C10.2695 7.42839 10.1875 7.83398 10.0234 8.2168C9.85938 8.59961 9.63607 8.93457 9.35352 9.22168C9.07096 9.50879 8.73828 9.73438 8.35547 9.89844C7.97266 10.0625 7.5625 10.1445 7.125 10.1445C6.69661 10.1445 6.29102 10.0625 5.9082 9.89844C5.52539 9.73438 5.19043 9.50879 4.90332 9.22168C4.61621 8.93457 4.39062 8.59961 4.22656 8.2168C4.0625 7.83398 3.98047 7.42839 3.98047 7C3.98047 6.5625 4.0625 6.15234 4.22656 5.76953C4.39062 5.38672 4.61621 5.05404 4.90332 4.77148C5.19043 4.48893 5.52539 4.26562 5.9082 4.10156C6.29102 3.9375 6.69661 3.85547 7.125 3.85547ZM7.125 9.03711C7.6901 9.03711 8.17318 8.83887 8.57422 8.44238C8.97526 8.0459 9.17578 7.5651 9.17578 7C9.17578 6.4349 8.97526 5.95182 8.57422 5.55078C8.17318 5.14974 7.6901 4.94922 7.125 4.94922C6.5599 4.94922 6.0791 5.14974 5.68262 5.55078C5.28613 5.95182 5.08789 6.4349 5.08789 7C5.08789 7.5651 5.28841 8.0459 5.68945 8.44238C6.09049 8.83887 6.56901 9.03711 7.125 9.03711ZM11.1309 3.73242C11.1309 3.93294 11.0602 4.10384 10.9189 4.24512C10.7777 4.38639 10.6022 4.45703 10.3926 4.45703C10.1921 4.45703 10.0212 4.38639 9.87988 4.24512C9.73861 4.10384 9.66797 3.93294 9.66797 3.73242C9.66797 3.52279 9.73861 3.34733 9.87988 3.20605C10.0212 3.06478 10.1921 2.99414 10.3926 2.99414C10.6022 2.99414 10.7777 3.06478 10.9189 3.20605C11.0602 3.34733 11.1309 3.52279 11.1309 3.73242ZM13.209 4.4707C13.2272 4.72591 13.2409 5.08594 13.25 5.55078C13.25 6.00651 13.25 6.4873 13.25 6.99316C13.25 7.49902 13.25 7.98438 13.25 8.44922C13.2409 8.91406 13.2272 9.27409 13.209 9.5293C13.1908 10.0124 13.111 10.4704 12.9697 10.9033C12.8285 11.3363 12.5801 11.7305 12.2246 12.0859C11.8691 12.4505 11.4749 12.7012 11.042 12.8379C10.609 12.9746 10.1465 13.0566 9.6543 13.084C9.39909 13.0931 9.03906 13.1022 8.57422 13.1113C8.11849 13.1204 7.6377 13.125 7.13184 13.125C6.62598 13.125 6.14062 13.1204 5.67578 13.1113C5.21094 13.1022 4.85091 13.0931 4.5957 13.084C4.10352 13.0566 3.64323 12.9746 3.21484 12.8379C2.78646 12.7012 2.38997 12.4505 2.02539 12.0859C1.66992 11.7305 1.42383 11.3363 1.28711 10.9033C1.15039 10.4704 1.06836 10.0124 1.04102 9.5293C1.02279 9.27409 1.01367 8.91406 1.01367 8.44922C1.00456 7.98438 1 7.49902 1 6.99316C1 6.4873 1.00456 6.00195 1.01367 5.53711C1.01367 5.08138 1.02279 4.72591 1.04102 4.4707C1.06836 3.97852 1.15039 3.51595 1.28711 3.08301C1.42383 2.65007 1.66992 2.25586 2.02539 1.90039C2.38997 1.54492 2.78874 1.29655 3.22168 1.15527C3.65462 1.014 4.11263 0.934245 4.5957 0.916016C4.85091 0.897786 5.21094 0.884115 5.67578 0.875C6.14062 0.875 6.62598 0.875 7.13184 0.875C7.6377 0.875 8.11849 0.875 8.57422 0.875C9.03906 0.884115 9.39909 0.897786 9.6543 0.916016C10.1465 0.943359 10.609 1.02539 11.042 1.16211C11.4749 1.29883 11.8691 1.54492 12.2246 1.90039C12.5801 2.26497 12.8285 2.66146 12.9697 3.08984C13.111 3.51823 13.1908 3.97852 13.209 4.4707ZM11.9102 10.6094C11.9831 10.4089 12.0378 10.1491 12.0742 9.83008C12.1107 9.51107 12.1357 9.17839 12.1494 8.83203C12.1631 8.48568 12.1654 8.14844 12.1562 7.82031C12.1562 7.49219 12.1562 7.21875 12.1562 7C12.1562 6.77214 12.1562 6.49414 12.1562 6.16602C12.1654 5.83789 12.1631 5.50065 12.1494 5.1543C12.1357 4.80794 12.1107 4.47982 12.0742 4.16992C12.0378 3.85091 11.9831 3.59115 11.9102 3.39062C11.8008 3.11719 11.6458 2.88021 11.4453 2.67969C11.2448 2.47917 11.0078 2.32422 10.7344 2.21484C10.5339 2.14193 10.2741 2.08724 9.95508 2.05078C9.64518 2.01432 9.31706 1.98926 8.9707 1.97559C8.62435 1.96191 8.28711 1.95964 7.95898 1.96875C7.63086 1.96875 7.35286 1.96875 7.125 1.96875C6.90625 1.96875 6.63281 1.96875 6.30469 1.96875C5.97656 1.95964 5.63932 1.96191 5.29297 1.97559C4.94661 1.98926 4.61393 2.01432 4.29492 2.05078C3.97591 2.08724 3.71615 2.14193 3.51562 2.21484C3.24219 2.32422 3.00521 2.47917 2.80469 2.67969C2.60417 2.88021 2.45378 3.11719 2.35352 3.39062C2.27148 3.59115 2.21224 3.85091 2.17578 4.16992C2.13932 4.47982 2.11654 4.80794 2.10742 5.1543C2.09831 5.50065 2.09375 5.83789 2.09375 6.16602C2.10286 6.49414 2.10742 6.77214 2.10742 7C2.10742 7.21875 2.10286 7.49219 2.09375 7.82031C2.09375 8.14844 2.09831 8.48568 2.10742 8.83203C2.11654 9.17839 2.13932 9.51107 2.17578 9.83008C2.21224 10.1491 2.27148 10.4089 2.35352 10.6094C2.46289 10.8828 2.61784 11.1175 2.81836 11.3135C3.01888 11.5094 3.2513 11.6621 3.51562 11.7715C3.71615 11.8535 3.97591 11.9128 4.29492 11.9492C4.61393 11.9857 4.94661 12.0085 5.29297 12.0176C5.63932 12.0267 5.97656 12.0312 6.30469 12.0312C6.63281 12.0221 6.90625 12.0176 7.125 12.0176C7.35286 12.0176 7.63086 12.0221 7.95898 12.0312C8.28711 12.0312 8.62435 12.0267 8.9707 12.0176C9.31706 12.0085 9.64518 11.9857 9.95508 11.9492C10.2741 11.9128 10.5339 11.8535 10.7344 11.7715C11.0078 11.6621 11.2448 11.5072 11.4453 11.3066C11.6458 11.1061 11.8008 10.8737 11.9102 10.6094Z" fill="#1F1E17"/>
</svg>
