<svg width="31" height="31" viewBox="0 0 31 31" fill="none" xmlns="http://www.w3.org/2000/svg">
<g clip-path="url(#clip0_4039_4631)">
<path d="M30.7715 12.3223C30.7715 12.3027 30.7715 12.2783 30.7715 12.249C30.7715 12.2197 30.7617 12.1953 30.7422 12.1758C30.7227 12.0977 30.6885 12.0195 30.6396 11.9414C30.5908 11.8633 30.5273 11.7949 30.4492 11.7363L26.1426 8.77734V5.55469C26.1426 5.33984 26.0693 5.15918 25.9229 5.0127C25.7764 4.86621 25.5957 4.79297 25.3809 4.79297H20.459L16.2402 1.86328C16.1035 1.78516 15.957 1.74609 15.8008 1.74609C15.6445 1.74609 15.498 1.78516 15.3613 1.86328L11.1426 4.79297H6.2207C6.00586 4.79297 5.8252 4.86621 5.67871 5.0127C5.53223 5.15918 5.45898 5.33984 5.45898 5.55469V8.71875L1.12305 11.707C1.02539 11.7852 0.947266 11.8779 0.888672 11.9854C0.830078 12.0928 0.800781 12.2051 0.800781 12.3223C0.800781 12.3223 0.800781 12.3271 0.800781 12.3369C0.800781 12.3467 0.800781 12.3516 0.800781 12.3516L0.830078 28.9922C0.830078 29.0898 0.849609 29.1875 0.888672 29.2852C0.927734 29.3828 0.976562 29.4707 1.03516 29.5488C1.11328 29.6074 1.20117 29.6562 1.29883 29.6953C1.39648 29.7344 1.49414 29.7539 1.5918 29.7539L30.0391 29.7246C30.2539 29.7246 30.4346 29.6514 30.5811 29.5049C30.7275 29.3584 30.8008 29.1777 30.8008 28.9629L30.7715 12.3223ZM26.1426 10.623L28.6035 12.3516L26.1426 14.0508V10.623ZM15.8008 3.44531L17.7637 4.79297H13.8379L15.8008 3.44531ZM6.98242 6.3457H24.6191V15.1055L18.7012 19.2363L16.2695 17.3613C16.1328 17.2637 15.9766 17.21 15.8008 17.2002C15.625 17.1904 15.4688 17.2441 15.332 17.3613L12.9004 19.2363L6.98242 15.1641V6.3457ZM5.45898 10.5938V14.0801L2.91016 12.3516L5.45898 10.5938ZM2.35352 13.8164L11.6406 20.2324L2.35352 27.4395V13.8164ZM3.84766 28.2305L15.8008 18.9434L27.7539 28.2012L3.84766 28.2305ZM19.9609 20.2324L29.248 13.7578V27.4395L19.9609 20.2324ZM21.0156 9.39258H10.5859C10.3906 9.39258 10.2148 9.4707 10.0586 9.62695C9.90234 9.7832 9.82422 9.96875 9.82422 10.1836C9.82422 10.3984 9.90234 10.5791 10.0586 10.7256C10.2148 10.8721 10.3906 10.9453 10.5859 10.9453H21.0156C21.2109 10.9453 21.3867 10.8721 21.543 10.7256C21.6992 10.5791 21.7773 10.3984 21.7773 10.1836C21.7773 9.96875 21.6992 9.7832 21.543 9.62695C21.3867 9.4707 21.2109 9.39258 21.0156 9.39258ZM21.0156 13.4062H10.5859C10.3906 13.4062 10.2148 13.4795 10.0586 13.626C9.90234 13.7725 9.82422 13.9531 9.82422 14.168C9.82422 14.3828 9.90234 14.5635 10.0586 14.71C10.2148 14.8564 10.3906 14.9297 10.5859 14.9297H21.0156C21.2109 14.9297 21.3867 14.8564 21.543 14.71C21.6992 14.5635 21.7773 14.3828 21.7773 14.168C21.7773 13.9531 21.6992 13.7725 21.543 13.626C21.3867 13.4795 21.2109 13.4062 21.0156 13.4062Z" fill="#878680"/>
</g>
<defs>
<clipPath id="clip0_4039_4631">
<rect width="30" height="30" fill="white" transform="matrix(1 0 0 -1 0.800781 30.75)"/>
</clipPath>
</defs>
</svg>
