<svg width="15" height="15" viewBox="0 0 15 15" fill="none" xmlns="http://www.w3.org/2000/svg">
<g clip-path="url(#clip0_4039_4615)">
<path d="M12.9238 4.89258C12.9238 4.95638 12.9238 5.02018 12.9238 5.08398C12.9238 5.14779 12.9238 5.21159 12.9238 5.27539C12.9238 6.22331 12.7461 7.18034 12.3906 8.14648C12.0352 9.11263 11.5133 9.98763 10.8252 10.7715C10.137 11.5553 9.28255 12.1979 8.26172 12.6992C7.25 13.1914 6.08333 13.4375 4.76172 13.4375C4.36068 13.4375 3.96419 13.4102 3.57227 13.3555C3.18034 13.2917 2.7998 13.2051 2.43066 13.0957C2.06152 12.9863 1.70378 12.8542 1.35742 12.6992C1.01107 12.5352 0.678385 12.3529 0.359375 12.1523C0.477865 12.1615 0.594076 12.1683 0.708008 12.1729C0.82194 12.1774 0.938151 12.1797 1.05664 12.1797C1.72201 12.1797 2.35775 12.0726 2.96387 11.8584C3.56999 11.6442 4.11914 11.3457 4.61133 10.9629C3.98242 10.9447 3.42415 10.7487 2.93652 10.375C2.44889 10.0013 2.11393 9.5319 1.93164 8.9668C2.02279 8.97591 2.11165 8.98503 2.19824 8.99414C2.28483 9.00326 2.37826 9.00781 2.47852 9.00781C2.60612 9.00781 2.73372 9.00098 2.86133 8.9873C2.98893 8.97363 3.11198 8.94857 3.23047 8.91211C2.57422 8.77539 2.02734 8.44727 1.58984 7.92773C1.15234 7.4082 0.933594 6.79753 0.933594 6.0957V6.06836C1.125 6.16862 1.33008 6.25065 1.54883 6.31445C1.76758 6.37826 1.99089 6.41471 2.21875 6.42383C1.83594 6.16862 1.52832 5.83138 1.2959 5.41211C1.06348 4.99284 0.947266 4.53255 0.947266 4.03125C0.947266 3.76693 0.981445 3.514 1.0498 3.27246C1.11816 3.03092 1.21159 2.80534 1.33008 2.5957C1.68555 3.02409 2.08203 3.41602 2.51953 3.77148C2.95703 4.12695 3.42643 4.43457 3.92773 4.69434C4.42904 4.9541 4.96224 5.16146 5.52734 5.31641C6.08333 5.47135 6.65755 5.5625 7.25 5.58984C7.23177 5.48047 7.21582 5.37109 7.20215 5.26172C7.18848 5.15234 7.18164 5.04297 7.18164 4.93359C7.18164 4.54167 7.25456 4.16797 7.40039 3.8125C7.55534 3.46615 7.7627 3.16309 8.02246 2.90332C8.28223 2.64355 8.58529 2.44075 8.93164 2.29492C9.278 2.13997 9.65169 2.0625 10.0527 2.0625C10.4629 2.0625 10.848 2.14453 11.208 2.30859C11.568 2.47266 11.8802 2.69141 12.1445 2.96484C12.4727 2.91016 12.7894 2.82357 13.0947 2.70508C13.4001 2.58659 13.6895 2.44531 13.9629 2.28125C13.8626 2.60938 13.7031 2.91016 13.4844 3.18359C13.2656 3.45703 13.0059 3.68034 12.7051 3.85352C12.9967 3.82617 13.2816 3.77376 13.5596 3.69629C13.8376 3.61882 14.1042 3.52539 14.3594 3.41602C14.168 3.69857 13.9492 3.96517 13.7031 4.21582C13.457 4.46647 13.1973 4.69206 12.9238 4.89258Z" fill="#1F1E17"/>
</g>
<defs>
<clipPath id="clip0_4039_4615">
<rect width="14" height="14" fill="white" transform="matrix(1 0 0 -1 0.359375 14.75)"/>
</clipPath>
</defs>
</svg>
