<svg width="31" height="31" viewBox="0 0 31 31" fill="none" xmlns="http://www.w3.org/2000/svg">
<g clip-path="url(#clip0_4039_4626)">
<path d="M29.2173 24.2168L23.3286 18.3281C22.9966 17.9961 22.5816 17.8301 22.0835 17.8301C21.5855 17.8301 21.1607 17.9961 20.8091 18.3281L19.2564 19.8809C19.022 20.1152 18.8658 20.3936 18.7876 20.7158C18.7095 21.0381 18.7193 21.3457 18.8169 21.6387L18.231 22.2246C18.0357 22.4199 17.3667 22.3027 16.2242 21.873C15.0816 21.4434 13.7388 20.457 12.1958 18.9141C10.6529 17.3711 9.66654 16.0283 9.23685 14.8857C8.80716 13.7432 8.68998 13.0742 8.88529 12.8789L9.47123 12.293C9.54935 12.3125 9.63236 12.332 9.72025 12.3516C9.80814 12.3711 9.89115 12.3809 9.96927 12.3809C10.2036 12.3809 10.4283 12.3369 10.6431 12.249C10.8579 12.1611 11.0533 12.0293 11.229 11.8535L12.7818 10.3008C13.1138 9.94922 13.2798 9.52441 13.2798 9.02637C13.2798 8.52832 13.1138 8.11328 12.7818 7.78125L6.8931 1.89258C6.71732 1.7168 6.52201 1.58496 6.30716 1.49707C6.09232 1.40918 5.85794 1.36523 5.60404 1.36523C5.36966 1.36523 5.14505 1.40918 4.93021 1.49707C4.71537 1.58496 4.52005 1.7168 4.34427 1.89258L2.82084 3.41602C2.58646 3.65039 2.43021 3.92871 2.35209 4.25098C2.27396 4.57324 2.27396 4.89062 2.35209 5.20312C2.35209 5.20312 2.26908 5.28613 2.10306 5.45215C1.93705 5.61816 1.85404 5.70117 1.85404 5.70117C1.03373 6.61914 0.550327 7.7666 0.403843 9.14355C0.257359 10.5205 0.457554 12.0586 1.00443 13.7578C1.25834 14.5977 1.59037 15.4473 2.00052 16.3066C2.41068 17.1465 2.88919 17.9863 3.43607 18.8262C3.98294 19.666 4.58841 20.4961 5.25248 21.3164C5.91654 22.1367 6.62943 22.9375 7.39115 23.7188C8.1724 24.4805 8.97318 25.1934 9.79349 25.8574C10.6138 26.5215 11.4439 27.127 12.2837 27.6738C13.1236 28.2207 13.9634 28.6992 14.8033 29.1094C15.6626 29.5195 16.5122 29.8516 17.3521 30.1055C18.0161 30.3203 18.6607 30.4814 19.2857 30.5889C19.9107 30.6963 20.5064 30.75 21.0728 30.75C22.0103 30.75 22.8599 30.6084 23.6216 30.3252C24.3833 30.042 25.0376 29.627 25.5845 29.0801L25.9068 28.7578C26.0044 28.7773 26.0923 28.792 26.1704 28.8018C26.2486 28.8115 26.3267 28.8164 26.4048 28.8164C26.6587 28.8164 26.8931 28.7725 27.1079 28.6846C27.3228 28.5967 27.5181 28.4648 27.6939 28.2891L29.2173 26.7656C29.5689 26.4141 29.7447 25.9893 29.7447 25.4912C29.7447 24.9932 29.5689 24.5684 29.2173 24.2168ZM5.60404 3.15234L11.4927 9.04102L9.96927 10.5645L4.0806 4.67578L5.60404 3.15234ZM24.3247 27.791C23.6802 28.4355 22.8013 28.8115 21.688 28.9189C20.5747 29.0264 19.3052 28.8555 17.8794 28.4062C17.1177 28.1523 16.3462 27.8398 15.565 27.4688C14.7837 27.0781 14.0025 26.6338 13.2212 26.1357C12.44 25.6377 11.6685 25.0762 10.9068 24.4512C10.1451 23.8262 9.40287 23.1523 8.68021 22.4297C7.95755 21.707 7.28373 20.9648 6.65873 20.2031C6.03373 19.4414 5.4722 18.6699 4.97416 17.8887C4.47611 17.1074 4.03177 16.3262 3.64115 15.5449C3.27005 14.7637 2.95755 13.9922 2.70365 13.2305C2.25443 11.8047 2.08353 10.5352 2.19095 9.42188C2.29837 8.30859 2.67435 7.42969 3.31888 6.78516L3.46537 6.60938L8.03568 11.1797L7.62552 11.5898C7.19584 12.0391 6.98099 12.5957 6.98099 13.2598C7.00052 13.9238 7.1763 14.6465 7.50834 15.4277C7.84037 16.209 8.30912 17.0195 8.91459 17.8594C9.52005 18.6797 10.1841 19.4609 10.9068 20.2031C12.0201 21.2969 13.2066 22.2246 14.4663 22.9863C15.7261 23.748 16.854 24.1289 17.8501 24.1289C18.1626 24.1289 18.4605 24.0752 18.7437 23.9678C19.0269 23.8604 19.2857 23.6992 19.5201 23.4844L19.9302 23.0742L24.5005 27.6445L24.3247 27.791ZM26.4341 27.0293L20.5454 21.1406L22.0689 19.6172L27.9576 25.5059C27.9576 25.5059 27.7036 25.7598 27.1958 26.2676C26.688 26.7754 26.4341 27.0293 26.4341 27.0293ZM23.1529 7.95703C22.2935 7.11719 21.312 6.46777 20.2085 6.00879C19.105 5.5498 17.9478 5.32031 16.7369 5.32031C16.4829 5.32031 16.2681 5.4082 16.0923 5.58398C15.9165 5.75977 15.8286 5.96484 15.8286 6.19922C15.8286 6.45312 15.9165 6.66797 16.0923 6.84375C16.2681 7.01953 16.4829 7.10742 16.7369 7.10742C17.7134 7.10742 18.6411 7.29297 19.5201 7.66406C20.399 8.03516 21.1802 8.5625 21.8638 9.24609C22.5474 9.92969 23.0747 10.7109 23.4458 11.5898C23.8169 12.4688 24.0025 13.3965 24.0025 14.373C24.0025 14.627 24.0904 14.8418 24.2661 15.0176C24.4419 15.1934 24.6568 15.2812 24.9107 15.2812C25.1451 15.2812 25.3501 15.1934 25.5259 15.0176C25.7017 14.8418 25.7896 14.627 25.7896 14.373C25.7896 13.1621 25.5601 12.0049 25.1011 10.9014C24.6421 9.79785 23.9927 8.81641 23.1529 7.95703ZM26.3755 4.73438C25.731 4.08984 25.0376 3.52344 24.2954 3.03516C23.5533 2.52734 22.772 2.10742 21.9517 1.77539C21.1314 1.44336 20.2818 1.18945 19.4029 1.01367C18.5435 0.837891 17.6548 0.75 16.7369 0.75C16.4829 0.75 16.2681 0.837891 16.0923 1.01367C15.9165 1.18945 15.8286 1.4043 15.8286 1.6582C15.8286 1.89258 15.9165 2.09766 16.0923 2.27344C16.2681 2.44922 16.4829 2.53711 16.7369 2.53711C18.3189 2.53711 19.8277 2.83496 21.2632 3.43066C22.6988 4.02637 23.9732 4.89062 25.0865 6.02344C26.2193 7.13672 27.0835 8.41113 27.6792 9.84668C28.2749 11.2822 28.5728 12.791 28.5728 14.373C28.5728 14.627 28.6607 14.8418 28.8365 15.0176C29.0122 15.1934 29.2173 15.2812 29.4517 15.2812C29.7056 15.2812 29.9204 15.1934 30.0962 15.0176C30.272 14.8418 30.3599 14.627 30.3599 14.373C30.3599 13.4551 30.272 12.5664 30.0962 11.707C29.9204 10.8281 29.6665 9.97852 29.3345 9.1582C29.0025 8.33789 28.5826 7.55664 28.0747 6.81445C27.5865 6.07227 27.0201 5.37891 26.3755 4.73438ZM19.9009 11.209C19.4712 10.7598 18.9878 10.4277 18.4507 10.2129C17.9136 9.99805 17.3423 9.89062 16.7369 9.89062C16.4829 9.89062 16.2681 9.97852 16.0923 10.1543C15.9165 10.3301 15.8286 10.5352 15.8286 10.7695C15.8286 11.0234 15.9165 11.2383 16.0923 11.4141C16.2681 11.5898 16.4829 11.6777 16.7369 11.6777C17.1079 11.6777 17.4546 11.7461 17.7769 11.8828C18.0992 12.0195 18.3872 12.2148 18.6411 12.4688C18.8951 12.7227 19.0904 13.0107 19.2271 13.333C19.3638 13.6553 19.4322 14.002 19.4322 14.373C19.4322 14.627 19.5201 14.8418 19.6958 15.0176C19.8716 15.1934 20.0865 15.2812 20.3404 15.2812C20.5747 15.2812 20.7798 15.1934 20.9556 15.0176C21.1314 14.8418 21.2193 14.627 21.2193 14.373C21.2193 13.7676 21.1119 13.1963 20.897 12.6592C20.6822 12.1221 20.3501 11.6387 19.9009 11.209Z" fill="#878680"/>
</g>
<defs>
<clipPath id="clip0_4039_4626">
<rect width="30" height="30" fill="white" transform="matrix(1 0 0 -1 0.359375 30.75)"/>
</clipPath>
</defs>
</svg>
